<?xml version="1.0" encoding="UTF-8"?>
<svg width="24" height="24" viewBox="0 0 24 24" fill="none" xmlns="http://www.w3.org/2000/svg">
    <!-- Cercle de cycle continu -->
    <path d="M21 12C21 16.9706 16.9706 21 12 21C7.02944 21 3 16.9706 3 12C3 7.02944 7.02944 3 12 3C16.9706 3 21 7.02944 21 12Z" stroke="#0066FF" stroke-width="2"/>
    
    <!-- Flèches de cycle -->
    <path d="M16 12C16 14.2091 14.2091 16 12 16C9.79086 16 8 14.2091 8 12C8 9.79086 9.79086 8 12 8" stroke="#0066FF" stroke-width="2" stroke-linecap="round"/>
    
    <!-- Flèche de déploiement -->
    <path d="M12 8L14 6M12 8L10 6M12 8V4" stroke="#0066FF" stroke-width="2" stroke-linecap="round" stroke-linejoin="round"/>
    
    <!-- Points de cycle -->
    <circle cx="12" cy="16" r="1" fill="#0066FF"/>
    <circle cx="16" cy="12" r="1" fill="#0066FF"/>
    <circle cx="8" cy="12" r="1" fill="#0066FF"/>
</svg>