<?xml version="1.0" encoding="UTF-8"?>
<svg width="24" height="24" viewBox="0 0 24 24" fill="none" xmlns="http://www.w3.org/2000/svg">
    <!-- Base de données du haut -->
    <path d="M4 6C4 4.34315 7.58172 3 12 3C16.4183 3 20 4.34315 20 6C20 7.65685 16.4183 9 12 9C7.58172 9 4 7.65685 4 6Z" stroke="#0066FF" stroke-width="2"/>
    
    <!-- Lignes verticales -->
    <path d="M4 6V18C4 19.6569 7.58172 21 12 21C16.4183 21 20 19.6569 20 18V6" stroke="#0066FF" stroke-width="2"/>
    
    <!-- Lignes du milieu -->
    <path d="M4 12C4 13.6569 7.58172 15 12 15C16.4183 15 20 13.6569 20 12" stroke="#0066FF" stroke-width="2"/>
    
    <!-- Points de données -->
    <circle cx="8" cy="6" r="1" fill="#0066FF"/>
    <circle cx="12" cy="6" r="1" fill="#0066FF"/>
    <circle cx="16" cy="6" r="1" fill="#0066FF"/>
</svg>